<?xml version="1.0" standalone="no"?>
<!DOCTYPE svg PUBLIC "-//W3C//DTD SVG 20010904//EN"
 "http://www.w3.org/TR/2001/REC-SVG-20010904/DTD/svg10.dtd">
<svg version="1.0" xmlns="http://www.w3.org/2000/svg"
 width="300.000000pt" height="300.000000pt" viewBox="0 0 300.000000 300.000000"
 preserveAspectRatio="xMidYMid meet">
<metadata>
Created by potrace 1.10, written by Peter Selinger 2001-2011
</metadata>
<g transform="translate(0.000000,300.000000) scale(0.100000,-0.100000)"
fill="#000000" stroke="none">
<path d="M1182 1905 c-74 -32 -140 -102 -156 -165 -4 -15 2 -10 15 15 81 152
272 203 408 110 l50 -34 51 34 c142 96 339 39 411 -120 10 -22 19 -34 19 -26
0 26 -54 111 -87 137 -109 83 -272 87 -365 9 -31 -26 -31 -26 -52 -6 -11 11
-41 29 -66 40 -55 25 -177 28 -228 6z"/>
<path d="M1300 1850 c61 -8 110 -29 155 -69 17 -14 12 -7 -11 16 -44 44 -94
64 -159 62 -36 -1 -34 -2 15 -9z"/>
<path d="M1710 1850 c30 -4 67 -12 81 -18 42 -17 91 -64 110 -107 10 -22 19
-33 19 -25 0 25 -43 88 -80 115 -41 30 -91 45 -145 44 -36 -2 -35 -2 15 -9z"/>
<path d="M1185 1833 c-41 -22 -65 -43 -81 -75 -20 -39 -10 -35 16 6 12 21 41
45 72 60 29 14 45 26 37 26 -7 -1 -27 -8 -44 -17z"/>
<path d="M1595 1831 c-16 -10 -39 -29 -50 -42 l-20 -24 26 22 c14 13 43 32 65
43 21 10 32 19 24 20 -8 0 -28 -8 -45 -19z"/>
<path d="M1215 1730 c-18 -20 -18 -21 3 -49 l21 -29 -20 -26 c-37 -48 17 -91
63 -49 17 15 19 15 37 -1 23 -21 60 -18 75 6 8 13 6 24 -11 46 l-21 29 21 21
c18 18 19 25 9 47 -15 32 -56 34 -73 4 l-11 -21 -22 21 c-28 26 -48 27 -71 1z
m66 -9 c24 -19 24 -19 46 1 40 37 84 -6 45 -44 -20 -21 -20 -21 -1 -47 21 -29
17 -61 -7 -61 -8 0 -26 7 -40 16 -23 15 -26 15 -44 -1 -39 -35 -80 6 -45 45
17 19 16 30 -7 61 -13 19 -4 49 16 49 7 0 24 -9 37 -19z"/>
<path d="M1612 1738 c-16 -16 -15 -34 4 -64 15 -23 15 -26 0 -43 -20 -22 -20
-45 0 -61 18 -16 65 -3 72 20 4 12 1 11 -15 -2 -45 -40 -81 -7 -45 42 21 28
21 28 1 46 -24 21 -21 57 4 62 11 2 29 -6 41 -17 l23 -21 18 20 c34 38 86 11
57 -29 -23 -31 -24 -42 -7 -61 37 -41 -6 -79 -48 -43 l-22 18 19 -22 c42 -50
105 -10 66 40 -25 31 -25 36 0 62 18 19 18 23 4 43 -19 27 -45 28 -69 2 l-18
-20 -22 20 c-24 23 -46 25 -63 8z"/>
<path d="M1983 1630 c0 -36 2 -50 4 -32 2 17 2 47 0 65 -2 17 -4 3 -4 -33z"/>
<path d="M1902 1547 c-14 -39 -379 -397 -405 -397 -8 0 -98 81 -199 179 -100
98 -187 183 -192 187 -5 6 -5 2 0 -8 8 -15 251 -251 340 -331 23 -20 48 -37
55 -37 15 1 77 57 272 247 110 108 153 161 145 184 -2 6 -9 -5 -16 -24z"/>
<path d="M1956 1514 c-14 -34 -63 -88 -208 -227 -104 -100 -203 -188 -220
-195 -18 -8 -39 -10 -53 -5 -40 14 -412 379 -431 423 -10 22 -20 38 -22 35 -2
-2 5 -23 17 -47 23 -49 385 -402 429 -419 48 -19 77 -1 224 139 216 205 265
258 278 297 17 52 8 52 -14 -1z"/>
<path d="M1475 1455 c-52 -18 -95 -66 -95 -105 0 -17 4 -30 9 -30 4 0 6 10 4
23 -9 48 66 108 136 109 58 1 81 -10 81 -38 0 -23 -2 -24 -58 -18 -58 6 -59 6
-95 -31 -21 -21 -35 -40 -33 -42 2 -2 20 13 40 33 35 35 38 36 90 30 49 -7 56
-5 66 14 14 26 6 39 -36 56 -41 17 -58 17 -109 -1z"/>
</g>
</svg>
